<svg width="296" height="70" viewBox="0 0 296 70" fill="none" xmlns="http://www.w3.org/2000/svg">
  <path style="fill: var(--color-primary, #50A060)"  d="M83.24 49V21H87.48V45.2H101.28V49H83.24ZM116.224 49.48C114.304 49.48 112.611 49.0533 111.144 48.2C109.678 47.32 108.531 46.1067 107.704 44.56C106.878 43.0133 106.464 41.2133 106.464 39.16C106.464 37.08 106.864 35.2533 107.664 33.68C108.491 32.1067 109.638 30.88 111.104 30C112.598 29.12 114.318 28.68 116.264 28.68C118.184 28.68 119.838 29.12 121.224 30C122.611 30.8533 123.678 32 124.424 33.44C125.198 34.88 125.584 36.4667 125.584 38.2C125.584 38.4667 125.584 38.76 125.584 39.08C125.584 39.3733 125.571 39.7067 125.544 40.08H110.624C110.758 41.92 111.358 43.32 112.424 44.28C113.491 45.2133 114.744 45.68 116.184 45.68C117.438 45.68 118.424 45.4267 119.144 44.92C119.891 44.3867 120.438 43.6667 120.784 42.76H125.064C124.584 44.6533 123.584 46.2533 122.064 47.56C120.544 48.84 118.598 49.48 116.224 49.48ZM116.224 32.36C114.918 32.36 113.758 32.76 112.744 33.56C111.731 34.3333 111.078 35.4267 110.784 36.84H121.344C121.238 35.5067 120.718 34.4267 119.784 33.6C118.851 32.7733 117.664 32.36 116.224 32.36ZM130.729 57.8V54.08H133.969C134.902 54.08 135.569 53.88 135.969 53.48C136.395 53.1067 136.609 52.4667 136.609 51.56V32.76H131.569V29.16H136.609V26.4C136.609 24.1867 137.155 22.6 138.249 21.64C139.342 20.68 140.902 20.2 142.929 20.2H147.769V23.92H143.449C142.515 23.92 141.849 24.1067 141.449 24.48C141.049 24.8533 140.849 25.5067 140.849 26.44V29.16H147.769V32.76H140.849V51.6C140.849 53.8133 140.302 55.4 139.209 56.36C138.115 57.32 136.542 57.8 134.489 57.8H130.729ZM166.113 49C164.166 49 162.62 48.5333 161.473 47.6C160.326 46.64 159.753 44.9467 159.753 42.52V32.76H154.753V29.16H157.713C159.073 29.16 159.873 28.4933 160.113 27.16L160.713 23.96H163.993V29.16H171.833V32.76H163.993V42.44C163.993 43.48 164.22 44.2133 164.673 44.64C165.153 45.04 165.966 45.24 167.113 45.24H171.753V49H166.113ZM181.058 36.8V33.2H194.818V36.8H181.058ZM202.682 57.8V54.08H205.922C206.855 54.08 207.522 53.88 207.922 53.48C208.349 53.1067 208.562 52.4667 208.562 51.56V32.76H203.522V29.16H208.562V26.4C208.562 24.1867 209.109 22.6 210.202 21.64C211.295 20.68 212.855 20.2 214.882 20.2H219.722V23.92H215.402C214.469 23.92 213.802 24.1067 213.402 24.48C213.002 24.8533 212.802 25.5067 212.802 26.44V29.16H219.722V32.76H212.802V51.6C212.802 53.8133 212.255 55.4 211.162 56.36C210.069 57.32 208.495 57.8 206.442 57.8H202.682ZM235.906 49.48C234.013 49.48 232.32 49.0533 230.826 48.2C229.333 47.3467 228.16 46.1467 227.306 44.6C226.453 43.0267 226.026 41.1867 226.026 39.08C226.026 36.9733 226.453 35.1467 227.306 33.6C228.16 32.0267 229.333 30.8133 230.826 29.96C232.32 29.1067 234.026 28.68 235.946 28.68C237.866 28.68 239.56 29.1067 241.026 29.96C242.52 30.8133 243.68 32.0267 244.506 33.6C245.36 35.1467 245.786 36.9733 245.786 39.08C245.786 41.1867 245.36 43.0267 244.506 44.6C243.653 46.1467 242.48 47.3467 240.986 48.2C239.52 49.0533 237.826 49.48 235.906 49.48ZM235.906 45.44C236.92 45.44 237.853 45.2133 238.706 44.76C239.56 44.3067 240.24 43.6133 240.746 42.68C241.28 41.72 241.546 40.52 241.546 39.08C241.546 37.6133 241.28 36.4133 240.746 35.48C240.24 34.5467 239.56 33.8533 238.706 33.4C237.88 32.9467 236.96 32.72 235.946 32.72C234.933 32.72 234 32.9467 233.146 33.4C232.293 33.8533 231.6 34.5467 231.066 35.48C230.56 36.4133 230.306 37.6133 230.306 39.08C230.306 41.2667 230.853 42.88 231.946 43.92C233.066 44.9333 234.386 45.44 235.906 45.44ZM250.971 49V45.32H255.811V34.16C255.811 33.28 255.384 32.84 254.531 32.84H251.371V29.16H256.131C257.224 29.16 258.117 29.48 258.811 30.12C259.504 30.7333 259.851 31.6 259.851 32.72V33.2H260.051C260.344 31.7067 260.971 30.5867 261.931 29.84C262.917 29.0667 264.344 28.68 266.211 28.68H269.291V33.16H264.971C263.397 33.16 262.184 33.7067 261.331 34.8C260.477 35.8933 260.051 37.2 260.051 38.72V45.32H266.211V49H250.971ZM275.795 49V20.2H280.035V37.48L287.635 29.16H292.955L284.675 37.96V38.28L294.035 49H288.875L280.035 38.8V49H275.795Z"/>
  <circle style="fill: var(--color-primary, #50A060)" cx="35" cy="35" r="35"  />
  <path style="fill: var(--color-white, #fff)" d="M37.916 48V22.8H41.732V44.58H54.152V48H37.916Z" />
  <path style="stroke: var(--color-white, #fff)" d="M13.3016 27.6863C12.0737 46.9253 37.8633 38.0184 25.0242 23.6377"  stroke-width="3" stroke-linecap="round"/>
  <path style="stroke: var(--color-white, #fff)" d="M23.1481 37.201L19.0891 25.4484"  stroke-width="3" stroke-linecap="round"/>
  <path style="stroke: var(--color-white, #fff)" d="M21.5529 38.7086C21.5529 38.7086 21.7729 47.0037 24.3566 50.6556C26.4975 53.0254 30.2784 51.7196 30.5005 48.5337C30.2798 44.0656 25.3338 37.4028 25.3338 37.4028"  stroke-width="3" stroke-linecap="round"/>
  </svg>
  