<svg
  width="421"
  height="83"
  viewBox="0 0 421 83"
  fill="none"
  xmlns="http://www.w3.org/2000/svg"
>
  <path
    fill="#50A060"
    d="M80.184 63V18.2H86.968V56.92H109.048V63H80.184ZM132.959 63.768C129.887 63.768 127.178 63.0853 124.831 61.72C122.484 60.312 120.65 58.3707 119.327 55.896C118.004 53.4213 117.343 50.5413 117.343 47.256C117.343 43.928 117.983 41.0053 119.263 38.488C120.586 35.9707 122.42 34.008 124.767 32.6C127.156 31.192 129.908 30.488 133.023 30.488C136.095 30.488 138.74 31.192 140.959 32.6C143.178 33.9653 144.884 35.8 146.079 38.104C147.316 40.408 147.935 42.9467 147.935 45.72C147.935 46.1467 147.935 46.616 147.935 47.128C147.935 47.5973 147.914 48.1307 147.871 48.728H123.999C124.212 51.672 125.172 53.912 126.879 55.448C128.586 56.9413 130.591 57.688 132.895 57.688C134.9 57.688 136.479 57.2827 137.631 56.472C138.826 55.6187 139.7 54.4667 140.255 53.016H147.103C146.335 56.0453 144.735 58.6053 142.303 60.696C139.871 62.744 136.756 63.768 132.959 63.768ZM132.959 36.376C130.868 36.376 129.012 37.016 127.391 38.296C125.77 39.5333 124.724 41.2827 124.255 43.544H141.151C140.98 41.4107 140.148 39.6827 138.655 38.36C137.162 37.0373 135.263 36.376 132.959 36.376ZM156.166 77.08V71.128H161.35C162.843 71.128 163.91 70.808 164.55 70.168C165.233 69.5707 165.574 68.5467 165.574 67.096V37.016H157.51V31.256H165.574V26.84C165.574 23.2987 166.449 20.76 168.198 19.224C169.947 17.688 172.443 16.92 175.686 16.92H183.43V22.872H176.518C175.025 22.872 173.958 23.1707 173.318 23.768C172.678 24.3653 172.358 25.4107 172.358 26.904V31.256H183.43V37.016H172.358V67.16C172.358 70.7013 171.483 73.24 169.734 74.776C167.985 76.312 165.467 77.08 162.182 77.08H156.166ZM212.781 63C209.666 63 207.192 62.2533 205.357 60.76C203.522 59.224 202.605 56.5147 202.605 52.632V37.016H194.605V31.256H199.341C201.517 31.256 202.797 30.1893 203.181 28.056L204.141 22.936H209.389V31.256H221.933V37.016H209.389V52.504C209.389 54.168 209.752 55.3413 210.477 56.024C211.245 56.664 212.546 56.984 214.381 56.984H221.805V63H212.781ZM236.692 43.48V37.72H258.708V43.48H236.692ZM271.291 77.08V71.128H276.475C277.968 71.128 279.035 70.808 279.675 70.168C280.358 69.5707 280.699 68.5467 280.699 67.096V37.016H272.635V31.256H280.699V26.84C280.699 23.2987 281.574 20.76 283.323 19.224C285.072 17.688 287.568 16.92 290.811 16.92H298.555V22.872H291.643C290.15 22.872 289.083 23.1707 288.443 23.768C287.803 24.3653 287.483 25.4107 287.483 26.904V31.256H298.555V37.016H287.483V67.16C287.483 70.7013 286.608 73.24 284.859 74.776C283.11 76.312 280.592 77.08 277.307 77.08H271.291ZM324.45 63.768C321.421 63.768 318.711 63.0853 316.322 61.72C313.933 60.3547 312.055 58.4347 310.69 55.96C309.325 53.4427 308.642 50.4987 308.642 47.128C308.642 43.7573 309.325 40.8347 310.69 38.36C312.055 35.8427 313.933 33.9013 316.322 32.536C318.711 31.1707 321.442 30.488 324.514 30.488C327.586 30.488 330.295 31.1707 332.642 32.536C335.031 33.9013 336.887 35.8427 338.21 38.36C339.575 40.8347 340.258 43.7573 340.258 47.128C340.258 50.4987 339.575 53.4427 338.21 55.96C336.845 58.4347 334.967 60.3547 332.578 61.72C330.231 63.0853 327.522 63.768 324.45 63.768ZM324.45 57.304C326.071 57.304 327.565 56.9413 328.93 56.216C330.295 55.4907 331.383 54.3813 332.194 52.888C333.047 51.352 333.474 49.432 333.474 47.128C333.474 44.7813 333.047 42.8613 332.194 41.368C331.383 39.8747 330.295 38.7653 328.93 38.04C327.607 37.3147 326.135 36.952 324.514 36.952C322.893 36.952 321.399 37.3147 320.034 38.04C318.669 38.7653 317.559 39.8747 316.706 41.368C315.895 42.8613 315.49 44.7813 315.49 47.128C315.49 50.6267 316.365 53.208 318.114 54.872C319.906 56.4933 322.018 57.304 324.45 57.304ZM348.553 63V57.112H356.297V39.256C356.297 37.848 355.614 37.144 354.249 37.144H349.193V31.256H356.809C358.558 31.256 359.988 31.768 361.097 32.792C362.206 33.7733 362.761 35.16 362.761 36.952V37.72H363.081C363.55 35.3307 364.553 33.5387 366.089 32.344C367.668 31.1067 369.95 30.488 372.937 30.488H377.865V37.656H370.953C368.436 37.656 366.494 38.5307 365.129 40.28C363.764 42.0293 363.081 44.12 363.081 46.552V57.112H372.937V63H348.553ZM388.272 63V16.92H395.056V44.568L407.216 31.256H415.728L402.48 45.336V45.848L417.456 63H409.2L395.056 46.68V63H388.272Z"
  />
  <circle fill="#50A060" cx="35" cy="41" r="35" />
  <path fill="white" d="M37.916 54V28.8H41.732V50.58H54.152V54H37.916Z" />
  <path
    stroke="white"
    d="M13.3016 33.6863C12.0737 52.9253 37.8633 44.0184 25.0242 29.6377"
    stroke-width="3"
    stroke-linecap="round"
  />
  <path
    stroke="white"
    d="M23.1481 43.201L19.0891 31.4484"
    stroke-width="3"
    stroke-linecap="round"
  />
  <path
    stroke="white"
    d="M21.5529 44.7086C21.5529 44.7086 21.7729 53.0037 24.3566 56.6556C26.4975 59.0254 30.2784 57.7196 30.5005 54.5337C30.2798 50.0656 25.3338 43.4028 25.3338 43.4028"
    stroke-width="3"
    stroke-linecap="round"
  />
</svg>
